<svg t="1592162585617" class="icon" viewBox="0 0 1024 1024" version="1.1" xmlns="http://www.w3.org/2000/svg" p-id="5976" width="200" height="200"><path d="M894.360919 527.298428c5.735631-40.416502-8.616238-83.70747-40.172954-109.663632-20.076244-17.317411-48.767703-28.862351-74.589813-28.862352H664.948973V258.907725c0-54.833863-17.219173-95.246271-48.767704-118.332059-22.943548-17.300015-48.77896-23.074531-71.732741-23.074532-25.835412 0-45.921889 5.774517-48.789193 5.774517-8.602935 2.88777-14.340613 11.542894-14.340613 20.180622v147.18213c0 112.565728-131.993197 152.952554-137.730875 155.839301h-5.735631c-8.591679-11.544941-20.076244-20.180622-37.284161-20.180621H171.444209c-22.956851 0-43.043329 20.180622-43.043329 43.273572v370.545314c0 23.092951 20.086477 43.297109 43.043329 43.297109h131.993196c14.340613 0 25.824155-5.774517 31.559787-14.436804 20.075221 23.092951 51.635007 37.522592 83.20605 37.522592h289.64989c77.481675 0 129.138172-40.403199 137.719618-112.546286l48.788169-266.654152z m-590.382185-59.105143v372.606253H172.584172v-372.606253h131.394562c-2.786463 0 0 0 0 0z m522.093893-20.184715c19.902282 17.23043 28.437679 45.961798 25.591864 71.816652L806.145785 785.124518c-8.535397 48.811706-39.850613 77.543074-96.785323 77.543073h-287.323915c-36.994566 0-68.312852-25.856901-74.012667-63.179948V488.225527l8.54563-2.874467c2.845815 0 42.696428-11.494799 82.561367-40.219004 54.051033-40.197514 85.36932-91.90313 85.36932-155.10252v-126.378316c17.081027-2.876514 48.38601-5.743818 68.312852 11.492752 19.924795 14.362102 31.293727 43.087331 31.293727 83.304288v149.360749c0 11.492752 8.54563 20.086477 19.924795 20.086478h133.641742c17.081027 2.876514 34.162054 8.618285 48.399314 20.113083z" p-id="5977"></path></svg>
