<svg t="1594712708877" class="icon" viewBox="0 0 1610 1024" version="1.1" xmlns="http://www.w3.org/2000/svg" p-id="1981" width="128" height="128"><path d="M0 0h1610.868788v714.273865H0z" p-id="1982"></path><path d="M230.281015 933.93779m-90.062209 0a90.06221 90.06221 0 1 0 180.124419 0 90.06221 90.06221 0 1 0-180.124419 0Z" p-id="1983"></path><path d="M760.403289 933.93779m-90.062209 0a90.06221 90.06221 0 1 0 180.124419 0 90.06221 90.06221 0 1 0-180.124419 0Z" p-id="1984"></path><path d="M1290.525563 933.93779m-90.062209 0a90.06221 90.06221 0 1 0 180.124419 0 90.06221 90.06221 0 1 0-180.124419 0Z" p-id="1985"></path></svg>
