<svg t="1594054977695" class="icon" viewBox="0 0 1025 1024" version="1.1" xmlns="http://www.w3.org/2000/svg" p-id="3889" width="200" height="200"><path d="M506.88 1024c-90.624 0-164.352-73.728-164.352-163.84s73.728-163.84 164.352-163.84c61.952 0 118.272 34.304 146.432 89.6l9.728 19.456 18.944-10.24c110.592-58.368 184.32-169.984 195.072-293.376l104.448-34.304v3.072c0 197.12-124.928 374.784-310.784 441.856l-8.704 3.072-3.584 8.704c-25.6 60.416-84.992 99.84-151.552 99.84zM237.056 852.992C112.64 764.928 38.912 623.616 38.912 470.016c0-36.864 4.096-73.216 12.8-109.056l2.56-11.264-8.192-8.192C16.384 310.784 0 270.336 0 227.84 0 137.216 73.728 64 164.352 64c90.624 0 164.352 73.728 164.352 163.84 0 89.088-72.704 162.304-161.792 163.84l-17.92 0.512-3.072 17.408c-3.072 19.968-5.12 39.936-5.12 60.416 0 104.448 44.032 203.264 121.856 272.896l-25.6 110.08zM860.16 402.944c-90.624 0-164.352-73.728-164.352-163.84 0-20.48 3.584-40.448 11.264-59.392l6.656-16.896-15.872-9.216c-56.32-33.28-121.344-50.688-186.88-50.688-35.84 0-71.168 5.12-105.472 15.36l-60.928-88.064C397.824 10.24 453.632 0 510.976 0c96.768 0 189.952 29.184 269.312 83.968l9.216 6.656 10.752-4.096c18.944-7.68 39.424-11.264 60.416-11.264 90.624 0 164.352 73.728 164.352 163.84-0.512 90.624-74.24 163.84-164.864 163.84z" p-id="3890"></path></svg>
