<svg t="1594126113592" class="icon" viewBox="0 0 1260 1024" version="1.1" xmlns="http://www.w3.org/2000/svg" p-id="8045" width="200" height="200"><path d="M849.086594 310.469336c14.425848 0 28.616492 1.17602 42.885537 2.744047C853.55547 134.301508 662.334584 1.411224 443.986831 1.411224 199.923436 1.411224 0 167.622081 0 378.992114c0 121.914095 66.484343 222.032616 177.657453 299.806753L133.282291 812.23796l155.234668-77.774136c55.508154 10.897787 100.040119 22.187581 155.469872 22.187581 13.95544 0 27.754077-0.627211 41.395912-1.646428a332.81372 332.81372 0 0 1-13.720236-93.140801C471.740908 467.977643 638.26537 310.469336 849.086594 310.469336zM610.432892 190.28007c33.555777 0 55.586555 21.952377 55.586555 55.429753 0 33.242171-22.030779 55.508154-55.586555 55.508154-33.16377 0-66.562744-22.265983-66.562744-55.508154 0-33.477375 33.320573-55.429753 66.562744-55.429753zM299.728352 301.061174c-33.320573 0-66.876349-22.265983-66.87635-55.508154 0-33.398974 33.555777-55.429753 66.87635-55.429752s55.429753 21.952377 55.429752 55.429752c0 33.242171-22.10918 55.508154-55.429752 55.508154zM1254.42156 656.611286c0-177.500651-177.657453-322.229538-377.188883-322.229539-211.291632 0-377.58089 144.807289-377.580889 322.229539 0 177.971059 166.367659 322.151137 377.580889 322.151136 44.21836 0 88.828727-11.05459 133.20389-22.187581l121.757293 66.797948-33.398974-111.016308C1187.937218 845.40173 1254.42156 756.729806 1254.42156 656.611286z m-499.651787-55.664957c-22.030779 0-44.375163-21.952377-44.375163-44.296762 0-22.10918 22.344384-44.375163 44.375163-44.375162 33.712579 0 55.586555 22.265983 55.586555 44.375162 0 22.422785-21.873976 44.375163-55.586555 44.375163z m244.220197 0c-21.873976 0-44.139959-21.952377-44.139959-44.296762 0-22.10918 22.187581-44.375163 44.139959-44.375162 33.398974 0 55.586555 22.265983 55.586556 44.375162 0 22.422785-22.187581 44.375163-55.586556 44.375163z" p-id="8046"></path></svg>
