<svg t="1594023980100" class="icon" viewBox="0 0 1024 1024" version="1.1" xmlns="http://www.w3.org/2000/svg" p-id="2070" width="200" height="200"><path d="M490.8032 0h38.9632c83.0464 2.4576 167.0144 4.5056 248.0128 24.8832 40.704 10.24 80.5888 25.7024 115.5584 49.2032 46.592 32.5632 78.4896 82.7904 95.6928 136.3968 26.2656 76.6976 28.3136 158.2592 34.9696 238.1312v117.7088c-6.2976 97.4336-9.7792 198.4-51.456 288.6144-30.208 64.7168-90.4192 111.8208-157.4912 133.9392-90.7776 29.44-187.1872 32.8192-281.7536 35.1232h-46.2336c-102.2976-3.3792-207.9232-5.4272-304.1792-44.544-63.3344-26.0096-114.2272-78.4896-139.6224-141.9264C6.912 748.3904 3.584 650.3936 0 555.4688V463.2064c3.072-90.9312 8.7552-183.3984 39.8336-269.7728 12.032-32.7168 32-62.1056 55.0912-87.9616 39.424-42.9568 94.9248-66.56 150.3232-80.9984C325.5296 4.6592 408.6272 2.5088 490.8032 0M335.4112 270.336c-36.352 8.6528-65.2288 36.3008-82.688 68.4032-27.904 50.4832-39.7312 107.6736-48.7424 164.096-7.424 54.1696-16.1792 108.7488-12.8512 163.6352 1.1264 20.736 4.9664 41.6768 14.4384 60.3136 8.6016 16.7936 26.112 29.7984 45.5168 28.8256 33.1264 2.3552 64.4096-15.8208 83.5072-42.0352 23.296-29.5424 44.9536-67.4304 84.6336-76.0832 64.256-13.9776 132.0448-14.1312 195.84 2.2528 56.1664 18.3808 68.7104 90.7264 124.1088 110.4384 22.3744 6.912 51.968 10.9056 69.9392-7.7312 15.104-16.5376 20.2752-39.5264 22.8864-61.1328 6.3488-70.144-5.376-140.0832-17.0496-208.9984-11.4176-55.0912-25.6512-112.128-60.3648-157.696-27.0848-36.1472-74.752-54.784-119.1424-45.7728-43.2128 9.7792-70.3488 51.1488-112.9472 61.9008-39.9872 6.656-69.0176-27.4944-100.0448-46.4384-25.088-17.92-57.6-21.248-87.04-13.9776z" p-id="2071"></path><path d="M350.2592 398.0288c49.3056-13.824 103.3216 27.3408 103.424 78.4384 3.3792 50.3296-46.5408 95.232-96.1024 86.3232-33.5872-4.9152-62.72-32.0512-69.4272-65.4336-10.7008-42.6496 19.456-89.6 62.1056-99.328m5.2736 35.3792c-33.2288 9.9328-46.0288 56.5248-19.3024 80.1792 23.1936 25.344 67.9424 14.592 78.7968-17.4592 15.5648-35.072-23.9616-75.52-59.4944-62.72zM646.8608 398.6944c10.6496 0 21.3504-0.0512 32-0.0512 0.1024 21.6576 0.0512 43.264 0 64.9216 22.0672 0 44.1344-0.1024 66.2016 0.0512-0.1024 10.752-0.2048 21.4528-0.256 32.2048-21.9648-0.1024-43.9296-0.0512-65.8944-0.1024 0 21.9648-0.0512 43.9808 0.1536 65.9456-10.8032 0.0512-21.6064 0.0512-32.3584 0 0.2048-21.9648 0.1536-43.9296 0.1536-65.8944-21.8112-0.0512-43.6224-0.0512-65.3824 0.1024-0.1024-10.752-0.2048-21.5552-0.256-32.256 21.9136-0.1536 43.8272 0 65.7408-0.1536-0.1536-21.5552-0.1024-43.1616-0.1024-64.768z" p-id="2072"></path></svg>
