<svg t="1594125907195" class="icon" viewBox="0 0 1024 1024" version="1.1" xmlns="http://www.w3.org/2000/svg" p-id="4689" width="200" height="200"><path d="M910.697834 790.900205c3.40874 10.153694 5.947163 23.208443 7.61527 39.164247 1.668107 15.955804 2.538423 31.911608 2.538424 47.867413 0 15.955804-1.160422 31.041292-3.553793 45.256463a89.860188 89.860188 0 0 1-10.661378 32.564346c-3.40874 4.714215-13.054749 9.863588-29.010553 15.303066-15.955804 5.439479-35.465401 10.661378-58.528791 15.810752-23.06339 5.076847-49.027835 9.863588-77.893336 14.287697a2440.512784 2440.512784 0 0 1-86.01629 11.676748c-28.502868 3.40874-56.13542 6.092216-82.970182 8.122955-26.834762 2.030739-50.043204 3.046108-69.697854 3.046108-29.88087 0-65.128692-2.175791-105.888519-6.599901a2414.185707 2414.185707 0 0 1-119.08832-15.810751 1702.556838 1702.556838 0 0 1-101.754516-18.85686c-29.155606-6.454848-46.852043-12.03938-52.944259-16.826121-7.470217-5.439479-13.054749-22.04802-16.826121-49.898151-3.698846-27.850131-2.175791-63.460585 4.569162-106.903888 4.061477-25.094128 14.215171-44.096041 30.533607-57.005737 16.318436-12.764643 35.465401-22.990863 57.513422-30.461081 22.04802-7.470217 44.821305-14.215171 68.1748-20.379914 23.426022-6.092216 43.950988-14.940435 61.574899-26.47213 14.287697-8.775692 25.311708-17.261279 33.144557-25.384234 7.832849-8.122955 13.199802-16.318436 16.318436-24.441391a71.873645 71.873645 0 0 0 4.569162-25.45676c0-8.848219-0.362632-18.349175-1.015369-28.502869-1.378001-16.24591-6.672427-28.792974-15.810752-37.641192a521.247114 521.247114 0 0 0-31.041292-27.487499 60.341951 60.341951 0 0 1-14.215171-19.872229 340.293789 340.293789 0 0 1-11.241589-25.891919c-3.40874-10.153694-6.81748-20.670019-10.153694-31.548977a47.214675 47.214675 0 0 1-14.287697-7.180111 78.546073 78.546073 0 0 1-25.384234-40.687301 79.488916 79.488916 0 0 1-3.626319-31.041292c1.015369-9.138324 2.901055-17.116226 5.584531-23.933706a76.877966 76.877966 0 0 1 12.256959-21.395283 493.324456 493.324456 0 0 1 4.061478-77.313125c2.756003-21.757915 7.61527-44.821305 14.795382-69.262695 7.107586-24.441391 17.478858-46.489411 31.041291-66.144061 12.83717-18.349175 27.26992-33.434663 43.225725-45.256463 15.955804-11.894327 32.056661-21.177704 48.375097-27.995184a216.853885 216.853885 0 0 1 49.390467-14.215171C480.979016 1.378001 497.079873 0 512.673045 0c19.65465 0 38.511509 2.393371 56.498052 7.107586 17.986543 4.786741 34.812664 10.878957 50.405836 18.349174 15.593172 7.470217 29.518238 15.810751 41.70267 24.949076 12.256959 9.138324 22.04802 18.494228 29.518238 27.995184 16.971174 21.685388 29.663291 45.619095 38.148878 71.728593a455.103053 455.103053 0 0 1 22.918337 155.206459 28.140237 28.140237 0 0 1 11.169063 12.184432c2.683476 4.786741 4.931794 10.878957 6.5999 18.349175 1.740633 7.470217 1.958212 16.681068 0.580211 27.487499a107.193994 107.193994 0 0 1-9.718535 34.0874 65.636377 65.636377 0 0 1-14.722856 19.872229 50.768468 50.768468 0 0 1-19.364544 11.169063c-2.683476 10.878957-5.802111 21.395283-9.138324 31.548977a268.057511 268.057511 0 0 1-11.676748 25.964445 66.941851 66.941851 0 0 1-14.795382 19.872229 190.671861 190.671861 0 0 1-17.261279 13.780012 98.563354 98.563354 0 0 0-14.287697 11.676748 51.566258 51.566258 0 0 0-10.153694 14.722856c-2.683476 5.802111-4.714215 12.692117-6.092216 20.887598a116.767476 116.767476 0 0 0-2.103265 31.041292c0.725264 10.516326 3.40874 21.032651 8.195481 31.548976 4.714215 10.516326 12.547064 20.524966 23.353495 30.025923 10.878957 9.500956 25.45676 17.986543 43.733409 25.45676 17.0437 6.81748 35.537928 12.764643 55.55521 17.841491s39.381826 11.169063 58.021106 18.349174c18.63928 7.107586 35.320348 16.100857 49.898151 26.979815 14.577803 10.806431 24.876549 25.021602 31.041292 42.718039z m-390.917204 166.883207c3.40874 0 8.63064-2.175791 15.810752-6.5999a175.223741 175.223741 0 0 0 38.729088-34.159927c5.076847-6.092216 7.61527-10.878957 7.61527-14.215171 0-4.061477-1.015369-11.169063-3.046108-21.395283-2.030739-10.153694-4.424109-21.395283-7.107585-33.579715l-8.122955-36.118139a701.330123 701.330123 0 0 0-7.107586-29.010553 95.734825 95.734825 0 0 0 17.333806-17.84149 33.362136 33.362136 0 0 0 7.107586-19.872229 31.331397 31.331397 0 0 0-5.584532-16.826121 66.434167 66.434167 0 0 0-12.692117-14.722856 640.698066 640.698066 0 0 0-17.478858-14.142644h-50.913521a129.024435 129.024435 0 0 0-17.261279 14.215171 77.385651 77.385651 0 0 0-11.169063 14.287697 30.461081 30.461081 0 0 0-5.076847 16.318436c0 4.061477 2.538423 9.500956 7.61527 16.318437 5.076847 6.81748 11.386642 13.199802 18.85686 19.364544a760.656704 760.656704 0 0 0-17.768964 62.590268c-3.046108 12.547064-5.802111 24.441391-8.122955 35.610454a131.562859 131.562859 0 0 0-3.553793 24.949076c0 3.40874 2.538423 8.122955 7.615271 14.215171a197.997025 197.997025 0 0 0 39.236773 34.159926c6.599901 4.279057 11.749274 6.454848 15.085487 6.454848z" p-id="4690"></path></svg>
