<svg t="1592162830241" class="icon" viewBox="0 0 1024 1024" version="1.1" xmlns="http://www.w3.org/2000/svg" p-id="9461" width="200" height="200"><path d="M857.24 63.098h-691.38c-57.231 0-103.68 48.258-103.68 107.711v574.47c0 59.453 46.458 107.712 103.698 107.712h227.673l93.663 97.29c6.208 6.522 14.945 10.588 24.632 10.621 8.821-0.001 17.559-3.483 24.436-10.621l93.663-97.29h227.673c57.24 0 103.698-48.258 103.698-107.712v-574.47c-0.378-59.453-47.017-107.711-104.076-107.711zM321.236 493.947c-28.62 0-51.858-24.12-51.858-53.856 0-29.727 23.238-53.856 51.858-53.856 28.62 0 51.849 24.128 51.849 53.856s-23.228 53.856-51.849 53.856zM528.642 493.947c-28.62 0-51.849-24.12-51.849-53.856 0-29.727 23.228-53.856 51.849-53.856s51.849 24.128 51.849 53.856-23.22 53.856-51.84 53.856zM736.235 493.947c-28.62 0-51.849-24.12-51.849-53.856 0-29.727 23.228-53.856 51.849-53.856s51.849 24.128 51.849 53.856-23.408 53.856-51.84 53.856z" p-id="9462"></path></svg>
