<svg t="1594125959088" class="icon" viewBox="0 0 1024 1024" version="1.1" xmlns="http://www.w3.org/2000/svg" p-id="6659" width="200" height="200"><path d="M512 1024a512 512 0 1 1 512-512 512 512 0 0 1-512 512z m-190.933333-108.16c0-66.176-7.978667-192.768-65.109334-275.84-107.904-156.970667-155.093333-217.6-175.829333-241.152a438.016 438.016 0 0 0 240.896 516.992z m325.418666-829.013333a135.210667 135.210667 0 0 1-6.528 105.173333c-31.36 40.576-87.936 19.328-128 64s11.818667 122.837333-64 128c-143.914667 9.813333-191.36 128-128 128s280.192-2.602667 320 0c94.72 6.229333-12.117333 147.456 0 192 10.24 37.76 186.368 57.429333 240.128 62.506667a445.184 445.184 0 0 0-233.6-679.68z" p-id="6660"></path></svg>
