<svg t="1594380152034" class="icon" viewBox="0 0 1024 1024" version="1.1" xmlns="http://www.w3.org/2000/svg" p-id="2897" width="128" height="128"><path d="M1021.728 825.28a128.48 128.48 0 0 0-38.432-74.368c-20.96-20.192-47.328-32.192-73.184-42.432-25.92-10.176-52.448-19.424-77.568-31.68-32.448-15.872-46.88-50.88-37.888-85.44a12 12 0 0 1 2.816-4.64c15.872-17.312 24.64-38.176 30.528-60.352 3.04-10.688 3.328-22.016 16.352-26.336 2.112-0.672 3.808-3.552 5.088-5.824 12.896-22.688 19.488-55.328 1.952-75.904 3.2-7.648 5.984-15.456 8.352-23.424a173.12 173.12 0 0 0-5.952-103.584c-11.616-31.36-31.328-57.6-65.632-62.816-22.368-3.264-32.096-13.504-37.888-32.64-0.704-2.496-4.384-5.92-6.528-5.92-22.656 1.28-45.216 3.136-67.904 4.832-0.032 1.856 0.064 3.648 0.32 5.472 15.744 51.648 18.272 103.488 3.136 155.744a16.832 16.832 0 0 0 0.64 9.568c6.848 19.104 8.544 39.616 4.8 59.584-5.664 28.32-14.496 54.848-35.232 76.16-4.16 4.608-7.392 9.888-9.664 15.648-9.408 21.792-15.936 45.056-28.224 65.504-8.8 14.944-11.072 29.376-12.864 45.76-3.84 34.752 13.728 52.64 42.816 64.128 1.792 0.672 3.456 1.568 5.152 2.24 42.816 18.688 86.464 35.488 128.128 56.384 53.568 26.752 96.736 65.056 118.848 122.88 2.4 6.304 6.336 7.008 12 7.008 29.632 0 59.2-0.32 88.736 0 12.8 0.128 23.328-3.264 29.504-15.424H1024v-31.616a93.024 93.024 0 0 1-2.272-8.512z" fill="#42A3FF" p-id="2898"></path><path d="M743.488 805.216c-36.224-23.744-76.864-38.016-116.576-54.304-28.032-11.424-56.448-22.24-80.064-41.888-15.552-12.992-28-27.488-27.584-50.016 0.448-23.552-1.056-47.136-1.472-70.688a10.976 10.976 0 0 1 2.112-7.136c26.592-26.176 36.768-60.064 44.32-94.976 1.536-6.688 3.392-10.752 10.432-13.504 5.6-2.912 10.24-7.328 13.376-12.736 12.288-18.56 18.016-40.672 16.352-62.816-0.832-12.576-4.8-24.16-15.84-31.552 3.168-5.664 5.984-11.456 8.448-17.44 18.016-52.736 13.6-104.544-8.416-155.008-15.648-35.776-41.376-64.64-80.512-69.664-29.28-3.648-40.832-17.696-48.192-41.664-1.824-5.92-5.312-7.52-11.52-7.296-40.288 1.856-79.616 7.776-116.48 24.992-54.656 25.568-92.544 66.08-108.896 125.12-12.224 44.864-8.192 88.704 8.16 131.904 1.28 3.456 2.912 9.248 1.184 11.072-14.88 16.416-16.32 35.584-12.192 55.776 4.064 20.16 9.088 39.168 29.376 48.896a14.592 14.592 0 0 1 9.344 11.968c7.744 36.16 18.912 70.752 47.072 97.184a10.176 10.176 0 0 1 2.048 7.136c-0.352 22.432-1.664 44.864-1.12 67.36 0.576 25.376-12.224 43.2-31.744 55.68-20.544 12.864-41.888 24.384-64 34.24-35.2 15.936-71.936 28.8-106.016 46.176-53.696 27.072-93.088 67.2-104.672 129.056a23.36 23.36 0 0 0 19.456 27.712c4.032 0.512 8.16 0.672 12.256 0.576h771.648c18.528-1.312 24.832-10.112 21.312-28.576-9.824-50.88-39.328-87.776-81.6-115.584z" fill="#42A3FF" p-id="2899"></path></svg>
