<svg t="1594197391715" class="icon" viewBox="0 0 1024 1024" version="1.1" xmlns="http://www.w3.org/2000/svg" p-id="2789" width="200" height="200"><path d="M852.195556 939.235556a28.444444 28.444444 0 0 1-28.444445 28.387555L85.333333 967.224889a28.444444 28.444444 0 0 1-28.444444-28.444445V142.222222a28.444444 28.444444 0 0 1 28.444444-28.444444h155.306667v94.606222c0 24.234667 24.746667 44.714667 72.078222 44.714667 47.331556 0 81.123556-14.392889 81.123556-44.714667V113.777778h122.538666v94.606222c0 24.234667 13.596444 44.714667 80.952889 44.714667 45.738667 0 72.248889-14.392889 72.248889-44.714667V113.777778h155.306667a28.444444 28.444444 0 0 1 28.444444 28.444444l-1.137777 797.013334zM191.715556 368.184889c-6.144 0-12.288 6.712889-12.288 13.482667v40.504888c0 6.769778 6.144 13.539556 12.231111 13.539556h526.904889c6.087111 0 12.231111-6.769778 12.231111-13.539556V381.724444c0-6.769778-6.144-13.482667-12.231111-13.482666H191.658667z m-12.288 193.991111v43.008c0 6.144 13.482667 12.231111 27.022222 12.231111h486.4c13.482667 0 27.022222-6.087111 27.022222-12.231111v-43.008c0-6.144-13.539556-12.288-27.022222-12.288h-486.4c-13.539556 0-27.022222 6.144-27.022222 12.288zM340.309333 56.888889c6.200889 0 6.200889 0 0 5.688889v159.288889s0 5.688889-6.257777 5.688889H290.702222S284.444444 227.555556 284.444444 221.866667V62.577778c0-5.688889 6.257778-5.688889 12.401778-5.688889h43.463111z m235.804445 0h43.463111C625.777778 56.888889 625.777778 56.888889 625.777778 62.577778v159.288889s0 5.688889-6.257778 5.688889h-43.406222s-6.200889 0-6.200889-5.688889V62.577778s0-5.688889 6.257778-5.688889z" p-id="2790"></path></svg>
