<svg t="1593676542035" class="icon" viewBox="0 0 1024 1024" version="1.1" xmlns="http://www.w3.org/2000/svg" p-id="3569" width="200" height="200"><path d="M469.333244 567.00257v396.364915a61.111871 61.111871 0 0 1-83.665062 56.315613l-0.538906-0.269452-347.432305-147.390625a60.087951 60.087951 0 0 1-37.723377-56.04616V419.611946a60.815473 60.815473 0 0 1 83.665062-56.315613l347.97121 147.390624a60.465185 60.465185 0 0 1 37.723378 56.315613zM1023.920781 419.611946v396.364915a60.49213 60.49213 0 0 1-38.127556 56.315613l-350.800464 147.390624a61.084926 61.084926 0 0 1-83.665062-56.315613V567.00257a60.222677 60.222677 0 0 1 38.127556-56.315613l350.288504-147.121172A60.734638 60.734638 0 0 1 1023.920781 419.611946z m-63.024985-193.736488a60.653802 60.653802 0 0 1-37.723378 56.046161l-390.086667 164.905049a65.45006 65.45006 0 0 1-23.550165 4.580696 62.270518 62.270518 0 0 1-23.038206-4.580696l-386.125712-165.174502a60.546021 60.546021 0 0 1 0.45807-112.092321l385.317354-164.90505a60.680747 60.680747 0 0 1 46.588371 0l390.517791 164.90505a60.923254 60.923254 0 0 1 37.642542 56.315613z" p-id="3570"></path></svg>
