<svg t="1592162684893" class="icon" viewBox="0 0 1024 1024" version="1.1" xmlns="http://www.w3.org/2000/svg" p-id="7504" width="200" height="200"><path d="M708.301 543.539v0z" p-id="7505"></path><path d="M838.486 989.867h-682.598c-60.484 0-126.908-66.355-126.908-126.839v-585.045c0-61.167 65.399-94.208 126.908-94.208h373.897c24.986 0 45.466 20.412 45.466 45.534 0 25.259-20.48 45.807-45.466 45.807h-373.897c-25.259 0-34.884 4.028-36.523 5.53l0.956 582.383c0.683 8.124 21.163 35.567 35.567 35.567h678.571c2.458-4.096 6.895-15.223 6.895-35.567v-357.376c0-25.327 20.617-45.875 45.943-45.875 24.986 0 45.466 20.548 45.466 45.875v357.376c0 79.394-47.991 126.839-94.276 126.839zM429.978 757.146c-20.412 0-38.025-13.244-43.895-33.041-0.546-1.843-56.047-194.15 59.051-331.639 75.366-89.975 202.889-132.983 379.699-128.137l-148.821-148.89c-17.886-18.091-17.886-46.421-0.137-64.512 17.34-17.545 47.514-17.545 64.785 0l262.007 261.598-263.919 232.516c-18.978 16.589-48.879 14.268-64.58-3.959-16.657-18.978-14.882-47.991 4.028-64.512l137.421-120.969c-143.292-3.14-244.668 28.945-300.373 95.437-78.848 94.413-45.261 232.243-41.233 247.603 7.1 23.893-6.895 49.289-31.13 56.525-4.233 1.297-8.602 1.98-12.902 1.98z" p-id="7506"></path></svg>
