<svg t="1595239870652" class="icon" viewBox="0 0 1025 1024" version="1.1" xmlns="http://www.w3.org/2000/svg" p-id="6076" width="200" height="200"><path d="M159.309283 205.764106 644.723925 205.764106C660.721509 205.764106 673.705057 192.780558 673.705057 176.782974 673.705057 160.785389 660.721509 147.801842 644.723925 147.801842L159.309283 147.801842C143.311698 147.801842 130.328151 160.785389 130.328151 176.782974 130.328151 192.780558 143.311698 205.764106 159.309283 205.764106M159.309283 329.310672 466.142189 329.310672C482.139774 329.310672 495.123321 316.327125 495.123321 300.32954 495.123321 284.331955 482.139774 271.348408 466.142189 271.348408L159.309283 271.348408C143.311698 271.348408 130.328151 284.331955 130.328151 300.32954 130.328151 316.327125 143.311698 329.310672 159.309283 329.310672M464.007245 590.480906C464.007245 495.809208 541.116377 418.758038 635.884679 418.758038 730.672302 418.758038 807.762113 495.809208 807.762113 590.480906 807.762113 685.152604 730.672302 762.203774 635.884679 762.203774 541.116377 762.203774 464.007245 685.152604 464.007245 590.480906L464.007245 590.480906ZM1023.613585 89.880151C1023.613585 65.864453 1014.243019 43.297811 997.279396 26.314868 980.296453 9.351245 957.729811 0 933.733434 0L933.694792 0 89.938113 0.077283C40.341736 0.077283 0 40.399698 0 89.976755L0 995.018868C0 1011.035774 12.983547 1024 28.981132 1024L33.772679 1024C41.114566 1024 48.205283 1021.217811 53.557132 1016.213736L151.474717 924.787925 249.392302 1016.213736C254.744151 1021.217811 261.815547 1024 269.157434 1024L279.320151 1024C286.662038 1024 293.733434 1021.217811 299.104604 1016.213736L397.022189 924.787925 494.939774 1016.213736C500.291623 1021.217811 507.363019 1024 514.704906 1024L524.867623 1024C532.209509 1024 539.280906 1021.217811 544.652075 1016.213736L642.56966 924.787925 740.487245 1016.213736C746.070943 1021.43034 753.16166 1024 760.252377 1024 767.980679 1024 775.728302 1020.908679 781.447245 1014.803321 792.363472 1003.094943 791.725887 984.759547 780.017509 973.843321L662.354113 863.927547C651.206038 853.552302 633.933283 853.552302 622.804528 863.927547L519.805585 960.125585 416.806642 863.927547C405.658566 853.552302 388.385811 853.552302 377.257057 863.927547L274.258113 960.125585 171.25917 863.927547C160.111094 853.552302 142.83834 853.552302 131.709585 863.927547L57.962264 932.786717 57.962264 89.976755C57.962264 72.375547 72.317585 58.039547 89.938113 58.039547L933.714113 57.962264 933.733434 57.962264C942.253887 57.962264 950.272 61.285434 956.280755 67.313509 962.328151 73.322264 965.651321 81.340377 965.651321 89.880151L965.651321 911.86234 965.670642 915.533283 799.744 751.248906C840.491472 709.786566 865.724377 653.041509 865.724377 590.480906 865.724377 463.833358 762.62883 360.795774 635.884679 360.795774 509.159849 360.795774 406.044981 463.833358 406.044981 590.480906 406.044981 717.128453 509.159849 820.166038 635.884679 820.166038 679.008604 820.166038 719.234415 808.013283 753.741283 787.301434L974.635472 1005.993057C983.001358 1014.243019 995.501887 1016.658113 1006.244226 1012.098415 1017.063849 1007.558038 1024.057962 996.950943 1024 985.242566L1023.613585 89.880151ZM630.101977 460.255155C559.175487 460.255155 501.483713 518.25606 501.483713 589.530325 501.483713 605.54723 514.46726 618.511457 530.464845 618.511457 546.46243 618.511457 559.445977 605.54723 559.445977 589.530325 559.445977 550.212589 591.132015 518.217419 630.101977 518.217419 646.099562 518.217419 659.083109 505.233872 659.083109 489.236287 659.083109 473.238702 646.099562 460.255155 630.101977 460.255155" p-id="6077"></path></svg>
