<svg t="1593880883042" class="icon" viewBox="0 0 1111 1024" version="1.1" xmlns="http://www.w3.org/2000/svg" p-id="5326" width="200" height="200"><path d="M854.016 436.955429a245.087086 245.087086 0 0 0 94.910171-196.022858C949.013943 107.783314 848.106057 0 723.236571 0c-57.109943 0-109.450971 22.703543-149.123657 60.445257 106.554514 54.593829 179.843657 171.008 179.843657 305.210514 0 72.674743-22.235429 142.7456-61.8496 200.001829a524.112457 524.112457 0 0 1 208.866743 261.354057H1111.771429c0-180.0192-107.754057-332.712229-257.755429-390.056228z m-271.096686 148.714057c64.804571-48.7424 106.964114-129.199543 106.964115-220.101486 0-113.225143-65.594514-210.563657-158.456686-250.528914a230.370743 230.370743 0 0 0-95.085714-20.041143c-139.761371 0-253.483886 121.504914-253.483886 270.570057 0 90.989714 42.569143 171.446857 106.876343 220.101486C121.007543 650.181486 0 821.599086 0 1024h872.740571c0-70.509714-14.5408-136.952686-41.398857-196.900571-48.566857-111.850057-138.532571-199.211886-248.4224-241.488458v0.058515z" p-id="5327"></path></svg>
